<svg xmlns="http://www.w3.org/2000/svg" viewBox="0 0 104.84598541259766 102.70999908447266">
    <g>
        <path
            d="M102.52 98.71H87.61a4 4 0 0 1-3.41-2l-3.61-6.26a2.57 2.57 0 0 1 2.22-3.86h14.92a3.93 3.93 0 0 1 3.41 2l3.61 6.26a2.58 2.58 0 0 1-2.23 3.86"
            fill="#f76b0a"></path>
        <path
            d="M85.77 62L60.89 18.87l.08-.13L50.15 0 1.27 84.64A9.38 9.38 0 0 0 17.5 94l32.57-56.38L64.12 62H49.23a9.37 9.37 0 0 0-9.36 9.37 9.37 9.37 0 0 0 9.36 9.36h47.35z"
            fill="#1f93ff"></path>
    </g>
</svg></svg>