<svg version="1.0" xmlns="http://www.w3.org/2000/svg" xmlns:xlink="http://www.w3.org/1999/xlink"
    width="100%" height="100%" viewBox="0 0 610.000000 104.000000">
    <g>
        <g transform="translate(0,0)">
            <g fill-rule="evenodd">
                <path
                    d="M102.52 98.71H87.61a4 4 0 0 1-3.41-2l-3.61-6.26a2.57 2.57 0 0 1 2.22-3.86h14.92a3.93 3.93 0 0 1 3.41 2l3.61 6.26a2.58 2.58 0 0 1-2.23 3.86"
                    fill="#f76b0a"></path>
                <path
                    d="M85.77 62L60.89 18.87l.08-.13L50.15 0 1.27 84.64A9.38 9.38 0 0 0 17.5 94l32.57-56.38L64.12 62H49.23a9.37 9.37 0 0 0-9.36 9.37 9.37 9.37 0 0 0 9.36 9.36h47.35z"
                    fill="#1f93ff"></path>
            </g>
        </g>
        <g transform="translate(126,14)">
            <g transform="scale(2.7)">
                <g fill="#333333">
                    <path
                        d="M8.16 0.52Q5.19 0.52 3.28-1.05 1.38-2.63 1.38-5.29L1.38-5.29Q1.38-8.06 3.18-9.61 4.98-11.17 8.23-11.17L8.23-11.17Q11.38-11.17 13.66-9.89L13.66-9.89 13.66-10.34Q13.66-12.1 12.57-12.9 11.48-13.69 9.06-13.69L9.06-13.69Q7.54-13.69 6.05-13.4 4.56-13.1 3.42-12.59L3.42-12.59 3.42-16.01Q4.46-16.49 6.21-16.8 7.95-17.11 9.58-17.11L9.58-17.11Q13.9-17.11 15.97-15.27 18.05-13.42 18.05-10.13L18.05-10.13 18.05 0 13.93 0 13.93-1.63Q12.86-0.59 11.5-0.03 10.13 0.52 8.16 0.52L8.16 0.52ZM9.23-2.66Q10.68-2.66 11.86-3.23 13.03-3.8 13.66-4.81L13.66-4.81 13.66-6.64Q11.76-7.99 9.3-7.99L9.3-7.99Q5.81-7.99 5.81-5.29L5.81-5.29Q5.81-3.98 6.69-3.32 7.57-2.66 9.23-2.66L9.23-2.66ZM30.81 7.95Q29.15 7.95 27.49 7.64 25.83 7.33 24.72 6.81L24.72 6.81 24.72 3.35Q27.42 4.53 30.81 4.53L30.81 4.53Q33.85 4.53 35.18 3.25 36.51 1.97 36.51-0.55L36.51-0.55 36.51-1.63Q35.34-0.55 33.71-0.02 32.09 0.52 30.22 0.52L30.22 0.52Q27.69 0.52 25.66-0.61 23.62-1.73 22.47-3.73 21.33-5.74 21.33-8.33L21.33-8.33Q21.33-10.96 22.46-12.95 23.58-14.94 25.57-16.03 27.56-17.11 30.08-17.11L30.08-17.11Q32.19-17.11 33.71-16.54 35.23-15.97 36.65-14.66L36.65-14.66 36.65-16.6 40.87-16.6 40.87-1Q40.87 3.28 38.4 5.62 35.92 7.95 30.81 7.95L30.81 7.95ZM31.15-2.9Q33.02-2.9 34.49-3.92 35.96-4.94 36.51-6.64L36.51-6.64 36.51-9.99Q35.92-11.69 34.47-12.69 33.02-13.69 31.15-13.69L31.15-13.69Q28.8-13.69 27.28-12.21 25.76-10.72 25.76-8.33L25.76-8.33Q25.76-5.95 27.28-4.43 28.8-2.9 31.15-2.9L31.15-2.9ZM54.35 0.52Q49.72 0.52 47.02-1.8 44.33-4.11 44.33-8.26L44.33-8.26Q44.33-12.34 46.71-14.73 49.1-17.11 53.52-17.11L53.52-17.11Q56.43-17.11 58.48-16.01 60.54-14.9 61.58-12.98 62.62-11.06 62.62-8.61L62.62-8.61 62.62-6.6 48.47-6.6Q48.92-2.9 54.91-2.9L54.91-2.9Q56.5-2.9 58.16-3.18 59.82-3.46 61.06-3.94L61.06-3.94 61.06-0.59Q59.88-0.1 58.03 0.21 56.19 0.52 54.35 0.52L54.35 0.52ZM48.47-9.58L58.5-9.58Q58.43-11.55 57.1-12.62 55.77-13.69 53.45-13.69L53.45-13.69Q51.17-13.69 49.86-12.59 48.54-11.48 48.47-9.58L48.47-9.58ZM66.07 0L66.07-16.6 70.29-16.6 70.29-14.35Q71.47-15.77 73.09-16.44 74.72-17.11 76.52-17.11L76.52-17.11Q79.87-17.11 81.53-15.3 83.19-13.48 83.19-10.48L83.19-10.48 83.19 0 78.83 0 78.83-10.06Q78.83-13.69 75.44-13.69L75.44-13.69Q73.96-13.69 72.64-12.98 71.33-12.27 70.43-10.86L70.43-10.86 70.43 0 66.07 0ZM93.84 0.52Q91.11 0.52 89.69-1 88.27-2.52 88.27-5.29L88.27-5.29 88.27-13.28 85.78-13.28 85.78-16.6 88.27-16.6 88.27-21.58 92.63-21.58 92.63-16.6 96.6-16.6 96.6-13.28 92.63-13.28 92.63-5.84Q92.63-4.25 93.22-3.58 93.8-2.9 95.36-2.9L95.36-2.9Q96.43-2.9 97.47-3.39L97.47-3.39 97.47-0.07Q95.98 0.52 93.84 0.52L93.84 0.52ZM106.35 0.52Q104.56 0.52 102.52 0.1 100.48-0.31 99.34-1.04L99.34-1.04 99.34-4.74Q100.68-3.91 102.55-3.41 104.42-2.9 106.08-2.9L106.08-2.9Q107.74-2.9 108.5-3.2 109.26-3.49 109.26-4.29L109.26-4.29Q109.26-4.91 108.86-5.31 108.46-5.7 107.58-6.03 106.7-6.36 104.87-6.85L104.87-6.85Q102.79-7.43 101.6-8.06 100.41-8.68 99.8-9.63 99.2-10.58 99.2-12.1L99.2-12.1Q99.2-14.59 101.17-15.85 103.14-17.11 106.49-17.11L106.49-17.11Q108.22-17.11 109.93-16.79 111.64-16.46 112.61-15.87L112.61-15.87 112.61-12.31Q111.58-12.93 110.09-13.31 108.6-13.69 107.05-13.69L107.05-13.69Q105.35-13.69 104.49-13.36 103.62-13.03 103.62-12.1L103.62-12.1Q103.62-11.48 104.09-11.12 104.56-10.75 105.32-10.49 106.08-10.23 108.08-9.72L108.08-9.72Q110.23-9.13 111.44-8.44 112.65-7.74 113.17-6.78 113.68-5.81 113.68-4.36L113.68-4.36Q113.68-2.14 111.8-0.81 109.92 0.52 106.35 0.52L106.35 0.52Z"
                        transform="translate(-1.3799999952316284, 23.860000610351562)"></path>
                </g>
                <g fill="#f76b0a" transform="translate(115.30000305175781,0)">
                    <g transform="scale(1)">
                        <path
                            d="M12.52-9.27L12.55-2.87C12.55-1.9 12.83-1.18 13.4-0.71 13.96-0.24 14.89 0 16.18 0 16.85 0 17.4-0.07 17.82-0.21 18.25-0.35 18.62-0.58 18.95-0.9 19.27-1.22 19.51-1.71 19.66-2.37 19.81-3.03 19.92-3.81 19.98-4.72 20.05-5.63 20.09-6.8 20.09-8.23 20.09-10.21 19.93-11.81 19.6-13.03 19.28-14.26 18.79-15.15 18.12-15.71 17.45-16.28 16.56-16.56 15.46-16.56 13.01-16.56 10.94-16.04 9.23-15.01L9.23-20.02C9.23-20.83 9.14-21.49 8.96-22.02 8.77-22.55 8.49-22.95 8.13-23.22 7.76-23.48 7.37-23.66 6.97-23.74 6.56-23.82 6.05-23.86 5.43-23.86 4.28-23.86 3.35-23.52 2.66-22.85 1.97-22.19 1.63-21.14 1.63-19.71L1.69-4.98C1.69-3.13 1.99-1.85 2.59-1.12 3.19-0.4 4.14-0.03 5.43-0.03 6.72-0.03 7.68-0.43 8.3-1.23 8.92-2.02 9.23-3.37 9.23-5.26L9.23-9.06C9.23-9.31 9.25-9.54 9.28-9.75 9.32-9.96 9.38-10.14 9.46-10.29 9.54-10.44 9.63-10.57 9.73-10.7 9.84-10.83 9.95-10.93 10.08-11 10.21-11.06 10.34-11.12 10.49-11.17 10.64-11.21 10.81-11.24 11-11.24 12.01-11.24 12.52-10.58 12.52-9.27ZM30.7-7.3L30.67-13.62C30.67-14.59 30.39-15.32 29.82-15.8 29.26-16.29 28.33-16.53 27.04-16.53 26.35-16.53 25.79-16.46 25.36-16.32 24.93-16.18 24.57-15.95 24.25-15.63 23.94-15.31 23.71-14.82 23.56-14.16 23.41-13.5 23.3-12.72 23.23-11.81 23.17-10.9 23.13-9.72 23.13-8.26 23.13-5.34 23.49-3.23 24.2-1.95 24.92-0.67 26.09-0.03 27.73-0.03 29.02-0.03 30.19-0.16 31.24-0.41 32.29-0.67 33.28-1.11 34.23-1.73 34.37-1.31 34.57-0.98 34.83-0.73 35.1-0.47 35.45-0.28 35.89-0.16 36.33-0.03 36.86 0.03 37.48 0.03 38.93 0.03 39.95-0.23 40.52-0.76 41.1-1.29 41.39-2.26 41.39-3.67L41.39-12.65C41.39-14.11 41.04-15.1 40.35-15.65 39.66-16.19 38.69-16.46 37.45-16.46 36.73-16.46 36.11-16.3 35.58-15.97 35.05-15.65 34.64-15.2 34.37-14.61 34.09-14.02 33.95-13.33 33.95-12.55L33.95-7.92C33.95-7.41 33.88-6.96 33.75-6.57 33.61-6.18 33.41-5.87 33.14-5.65 32.88-5.43 32.57-5.32 32.22-5.32 31.21-5.32 30.7-5.98 30.7-7.3ZM52.45-5.29L52.45-8.63 52.45-11.2C52.87-12.06 53.43-12.48 54.15-12.48 54.47-12.48 54.76-12.35 55.01-12.08 55.26-11.82 55.47-11.47 55.63-11.05 55.79-10.62 55.92-10.14 56.01-9.61 56.1-9.08 56.15-8.54 56.15-7.99 56.15-6.97 55.98-6.07 55.63-5.29 55.29-4.51 54.8-4.11 54.18-4.11 53.44-4.11 52.87-4.51 52.45-5.29ZM52.42-15.07L52.42-19.81C52.42-21.15 52.11-22.12 51.5-22.73 50.89-23.34 49.94-23.65 48.65-23.65 47.5-23.65 46.57-23.32 45.88-22.65 45.19-21.98 44.84-20.93 44.84-19.5L44.91-6.47C44.94-5.04 45.32-3.81 46.07-2.8 46.82-1.79 47.86-1.03 49.18-0.52 50.51-0.01 52.06 0.24 53.83 0.24 56.74 0.24 59.1-0.55 60.92-2.13 62.74-3.71 63.65-5.9 63.65-8.71 63.65-11.04 63.05-12.97 61.86-14.49 60.66-16.01 59.16-16.77 57.36-16.77 55.59-16.77 53.94-16.2 52.42-15.07Z"
                            transform="translate(-1.6299999952316284, 23.860000610351562)"></path>
                    </g>
                </g>
            </g>
        </g>
    </g>
</svg>