<svg xmlns="http://www.w3.org/2000/svg" xmlns:xlink="http://www.w3.org/1999/xlink" width="192" zoomAndPan="magnify"
    viewBox="0 0 144 143.999998" height="192" preserveAspectRatio="xMidYMid meet" version="1.0">
    <defs>
        <g />
        <clipPath id="1d1861cbf7">
            <path d="M 2 2 L 142 2 L 142 142 L 2 142 Z M 2 2 " clip-rule="nonzero" />
        </clipPath>
        <clipPath id="dbdba9cf35">
            <path
                d="M -5.582031 35.929688 L 108.070312 -5.585938 L 149.585938 108.066406 L 35.933594 149.582031 Z M -5.582031 35.929688 "
                clip-rule="nonzero" />
        </clipPath>
        <clipPath id="41ced84805">
            <path
                d="M 22.59375 25.636719 L 79.890625 4.710938 C 95.453125 -0.976562 112.675781 7.03125 118.363281 22.59375 L 139.292969 79.890625 C 144.976562 95.453125 136.96875 112.675781 121.40625 118.359375 L 64.113281 139.289062 C 48.546875 144.976562 31.324219 136.96875 25.640625 121.40625 L 4.710938 64.109375 C -0.976562 48.546875 7.03125 31.324219 22.59375 25.636719 Z M 22.59375 25.636719 "
                clip-rule="nonzero" />
        </clipPath>
    </defs>
    <g clip-path="url(#1d1861cbf7)">
        <g clip-path="url(#dbdba9cf35)">
            <g clip-path="url(#41ced84805)">
                <path fill="#05a85a"
                    d="M -5.582031 35.929688 L 108.070312 -5.585938 L 149.585938 108.066406 L 35.933594 149.582031 Z M -5.582031 35.929688 "
                    fill-opacity="1" fill-rule="nonzero" />
            </g>
        </g>
    </g>
    <g fill="#ffffff" fill-opacity="1">
        <g transform="translate(40.015996, 129.688776)">
            <g>
                <path
                    d="M 48.90625 -15.8125 C 40.164062 -12.613281 31.8125 -11.648438 23.84375 -12.921875 C 15.875 -14.203125 8.816406 -17.472656 2.671875 -22.734375 C -3.472656 -27.992188 -8.128906 -34.957031 -11.296875 -43.625 C -14.453125 -52.28125 -15.394531 -60.585938 -14.125 -68.546875 C -12.863281 -76.515625 -9.59375 -83.550781 -4.3125 -89.65625 C 0.957031 -95.769531 7.921875 -100.40625 16.578125 -103.5625 C 24.128906 -106.320312 31.476562 -107.367188 38.625 -106.703125 C 45.769531 -106.046875 52.363281 -103.863281 58.40625 -100.15625 C 64.445312 -96.457031 69.488281 -91.300781 73.53125 -84.6875 L 48.984375 -75.71875 C 46.328125 -79.03125 42.894531 -81.210938 38.6875 -82.265625 C 34.488281 -83.316406 30.179688 -83.035156 25.765625 -81.421875 C 21.835938 -79.984375 18.675781 -77.804688 16.28125 -74.890625 C 13.894531 -71.972656 12.425781 -68.59375 11.875 -64.75 C 11.320312 -60.90625 11.820312 -56.863281 13.375 -52.625 C 14.90625 -48.445312 17.101562 -45.039062 19.96875 -42.40625 C 22.84375 -39.78125 26.113281 -38.113281 29.78125 -37.40625 C 33.445312 -36.695312 37.242188 -37.054688 41.171875 -38.484375 C 45.742188 -40.160156 49.28125 -42.796875 51.78125 -46.390625 C 54.289062 -49.992188 55.585938 -54.039062 55.671875 -58.53125 L 80.34375 -67.546875 C 81.75 -59.960938 81.378906 -52.753906 79.234375 -45.921875 C 77.097656 -39.097656 73.453125 -33.082031 68.296875 -27.875 C 63.148438 -22.675781 56.6875 -18.65625 48.90625 -15.8125 Z M 48.90625 -15.8125 " />
            </g>
        </g>
    </g>
</svg>